# xmcd CD database file
#
# Track frame offsets:
#	150
#	20540
#	39850
#	59925
#	78400
#	99565
#	120915
#	142790
#	162325
#	182800
#	204125
#
# Disc length: 2967 seconds
#
# Revision: 4
# Processed by: cddbd v1.5.2PL0 Copyright (c) Steve Scherf et al.
# Submitted via: CDex 1.70beta2
#
DISCID=870b950b
DTITLE=デーモン小暮 - GIRLS' ROCK
DYEAR=2007
DGENRE=Rock
TTITLE0=六本木心中
TTITLE1=Return to Myself
TTITLE2=My Bevolution
TTITLE3=RASPBERRY DREAM
TTITLE4=SEVEN YEARS AFTER
TTITLE5=翼の折れた天使
TTITLE6=永遠の一秒
TTITLE7=TATTOO
TTITLE8=DISTANCIA～この胸の約束～
TTITLE9=City Hunter～愛よ消えないで
TTITLE10=限界LOVERS
EXTD=YEAR: 2007
EXTT0=
EXTT1=
EXTT2=
EXTT3=
EXTT4=
EXTT5=
EXTT6=
EXTT7=
EXTT8=
EXTT9=
EXTT10=
PLAYORDER=
